<svg width="34" height="34" xmlns="http://www.w3.org/2000/svg"><g clip-path="url(#clip0)"><path d="M33.97 10.2a11.75 11.75 0 00-.8-4 8.04 8.04 0 00-1.96-2.93 8.4 8.4 0 00-3-1.9C27.1.97 25.87.68 24.07.6c-1.82-.08-2.4-.1-7.02-.1-4.61 0-5.2.02-7 .1-1.81.07-3.05.36-4.13.76a8.32 8.32 0 00-3.01 1.91A8.1 8.1 0 00.96 6.2a11.78 11.78 0 00-.8 4C.09 11.97.07 12.53.07 17c0 4.48.02 5.04.1 6.8.08 1.76.37 2.96.79 4 .43 1.12 1.1 2.1 1.97 2.93a8.4 8.4 0 003 1.9c1.09.41 2.32.7 4.13.77 1.81.08 2.39.1 7 .1 4.62 0 5.2-.02 7.01-.1 1.81-.07 3.05-.36 4.13-.76a8.57 8.57 0 004.97-4.83c.42-1.05.71-2.25.8-4 .07-1.77.1-2.33.1-6.8 0-4.49-.01-5.05-.1-6.8zM30.9 23.68a8.81 8.81 0 01-.59 3.06 5.56 5.56 0 01-3.23 3.13c-.6.23-1.5.5-3.15.57-1.8.08-2.33.1-6.87.1s-5.08-.02-6.87-.1a9.56 9.56 0 01-3.15-.57 5.25 5.25 0 01-1.96-1.23c-.56-.54-1-1.18-1.26-1.9a8.85 8.85 0 01-.59-3.06c-.08-1.74-.1-2.26-.1-6.66s.02-4.94.1-6.67a8.8 8.8 0 01.59-3.06 5 5 0 011.27-1.9 5.3 5.3 0 011.95-1.23c.6-.22 1.5-.5 3.16-.57 1.8-.07 2.33-.1 6.87-.1s5.08.03 6.86.1c1.66.08 2.56.35 3.16.57.74.27 1.4.68 1.95 1.23.57.54 1 1.18 1.27 1.9.23.58.51 1.46.59 3.06a113 113 0 01.1 6.67c0 4.4-.03 4.91-.1 6.66z"/><path d="M17.06 8.53A8.61 8.61 0 008.33 17a8.61 8.61 0 008.73 8.48c4.83 0 8.74-3.8 8.74-8.48a8.61 8.61 0 00-8.74-8.47zm0 13.97A5.59 5.59 0 0111.4 17c0-3.03 2.53-5.5 5.66-5.5a5.58 5.58 0 015.67 5.5c0 3.04-2.54 5.5-5.67 5.5zM28.18 8.2c0 1.08-.91 1.97-2.04 1.97a2.01 2.01 0 01-2.04-1.98c0-1.1.92-1.98 2.04-1.98 1.13 0 2.04.89 2.04 1.98z"/></g><defs><clipPath id="clip0"><path transform="translate(0 .5)" d="M0 0h34v33H0z"/></clipPath></defs></svg>